<svg width="100%" viewBox="0 0 680 480" role="img" xmlns="http://www.w3.org/2000/svg">
<title>ThePost.Space — desktop app mockup</title>
<defs>
  <linearGradient id="mac-body" x1="0" y1="0" x2="0" y2="1">
    <stop offset="0%" stop-color="#d0d0d8"/>
    <stop offset="100%" stop-color="#a8a8b8"/>
  </linearGradient>
  <linearGradient id="screen-bg" x1="0" y1="0" x2="1" y2="1">
    <stop offset="0%" stop-color="#05050e"/>
    <stop offset="100%" stop-color="#08081a"/>
  </linearGradient>
  <linearGradient id="acc" x1="0" y1="0" x2="1" y2="0">
    <stop offset="0%" stop-color="#6366f1"/>
    <stop offset="100%" stop-color="#06b6d4"/>
  </linearGradient>
  <clipPath id="screen-area">
    <rect x="44" y="20" width="592" height="370" rx="6"/>
  </clipPath>
</defs>
<rect x="30" y="10" width="620" height="388" rx="10" fill="url(#mac-body)" stroke="#888" stroke-width="0.8"/>
<circle cx="340" cy="18" r="3" fill="#666"/>
<rect x="44" y="20" width="592" height="370" rx="6" fill="#0a0a14"/>
<rect x="48" y="24" width="584" height="362" rx="4" fill="url(#screen-bg)"/>
<rect x="48" y="24" width="584" height="32" rx="4" fill="#0d0d20" clip-path="url(#screen-area)"/>
<rect x="48" y="52" width="584" height="0.5" fill="#1a1a32"/>
<circle cx="66" cy="40" r="5.5" fill="#ff5f57"/>
<circle cx="82" cy="40" r="5.5" fill="#febc2e"/>
<circle cx="98" cy="40" r="5.5" fill="#28c840"/>
<rect x="270" y="32" width="140" height="16" rx="4" fill="#131328"/>
<text x="340" y="44" font-size="10" fill="#7878a0" font-family="sans-serif" text-anchor="middle" font-weight="600">thepost.space — Inbox</text>
<rect x="568" y="30" width="56" height="20" rx="4" fill="#0d0d20" stroke="#1a1a32" stroke-width="0.5"/>
<text x="585" y="44" font-size="9" fill="#7878a0" font-family="sans-serif" text-anchor="middle">EN</text>
<text x="596" y="44" font-size="9" fill="#4a4a6a" font-family="sans-serif">|</text>
<text x="612" y="44" font-size="9" fill="#7878a0" font-family="sans-serif" text-anchor="middle">RU</text>
<rect x="48" y="56" width="68" height="330" fill="#08081a" clip-path="url(#screen-area)"/>
<rect x="116" y="56" width="0.5" height="330" fill="#1a1a32"/>
<rect x="62" y="68" width="28" height="28" rx="8" fill="url(#acc)"/>
<path d="M66 80l10 6 10-6" stroke="white" stroke-width="1.3" stroke-linecap="round" fill="none"/>
<rect x="66" y="76" width="20" height="13" rx="2" stroke="white" stroke-width="1.3" fill="none"/>
<rect x="62" y="108" width="28" height="24" rx="6" fill="#6366f1" opacity="0.2"/>
<rect x="69" y="115" width="14" height="9" rx="1.5" stroke="#6366f1" stroke-width="1.1" fill="none"/>
<path d="M69 115l7 5 7-5" stroke="#6366f1" stroke-width="1" stroke-linecap="round" stroke-linejoin="round" fill="none"/>
<circle cx="82" cy="110" r="4" fill="#6366f1"/>
<text x="82" y="113" font-size="7" fill="white" font-family="sans-serif" text-anchor="middle" font-weight="700">3</text>
<text x="76" y="140" font-size="8" fill="#6366f1" font-family="sans-serif" text-anchor="middle" font-weight="600">Inbox</text>
<g transform="translate(62,154)">
  <path d="M5 10l19-6-8 6z" stroke="#4a4a6a" stroke-width="1" stroke-linecap="round" stroke-linejoin="round" fill="none"/>
  <path d="M5 10l4 7 3-5 8-5" stroke="#4a4a6a" stroke-width="1" stroke-linecap="round" stroke-linejoin="round" fill="none"/>
  <text x="14" y="26" font-size="8" fill="#4a4a6a" font-family="sans-serif" text-anchor="middle">Send</text>
</g>
<g transform="translate(62,199)">
  <circle cx="14" cy="8" r="6" stroke="#4a4a6a" stroke-width="1.1" fill="none"/>
  <circle cx="14" cy="8" r="2.5" fill="#4a4a6a"/>
  <line x1="14" y1="14" x2="14" y2="19" stroke="#4a4a6a" stroke-width="1.3" stroke-linecap="round"/>
  <text x="14" y="26" font-size="8" fill="#4a4a6a" font-family="sans-serif" text-anchor="middle">Track</text>
</g>
<g transform="translate(62,241)">
  <rect x="6" y="3" width="16" height="14" rx="2" stroke="#4a4a6a" stroke-width="1" fill="none"/>
  <line x1="6" y1="7" x2="22" y2="7" stroke="#4a4a6a" stroke-width="0.8"/>
  <line x1="10" y1="5" x2="10" y2="3" stroke="#4a4a6a" stroke-width="1" stroke-linecap="round"/>
  <line x1="18" y1="5" x2="18" y2="3" stroke="#4a4a6a" stroke-width="1" stroke-linecap="round"/>
  <text x="14" y="26" font-size="8" fill="#4a4a6a" font-family="sans-serif" text-anchor="middle">Archive</text>
</g>
<g transform="translate(62,287)">
  <line x1="6" y1="5" x2="22" y2="5" stroke="#4a4a6a" stroke-width="1" stroke-linecap="round"/>
  <circle cx="12" cy="5" r="2.5" fill="#08081a" stroke="#4a4a6a" stroke-width="1"/>
  <line x1="6" y1="11" x2="22" y2="11" stroke="#4a4a6a" stroke-width="1" stroke-linecap="round"/>
  <circle cx="17" cy="11" r="2.5" fill="#08081a" stroke="#4a4a6a" stroke-width="1"/>
  <text x="14" y="26" font-size="8" fill="#4a4a6a" font-family="sans-serif" text-anchor="middle">Settings</text>
</g>
<circle cx="76" cy="350" r="10" fill="url(#acc)" opacity="0.9"/>
<text x="76" y="354" font-size="9" fill="white" font-family="sans-serif" text-anchor="middle" font-weight="700">U</text>
<rect x="117" y="56" width="196" height="330" fill="#05050e" clip-path="url(#screen-area)"/>
<rect x="313" y="56" width="0.5" height="330" fill="#1a1a32"/>
<rect x="124" y="64" width="182" height="22" rx="6" fill="#0d0d20" stroke="#1a1a32" stroke-width="0.5"/>
<circle cx="136" cy="75" r="4.5" stroke="#4a4a6a" stroke-width="1" fill="none"/>
<line x1="139" y1="78" x2="141" y2="80" stroke="#4a4a6a" stroke-width="1" stroke-linecap="round"/>
<text x="148" y="79" font-size="9" fill="#4a4a6a" font-family="sans-serif">Search in Inbox…</text>
<text x="124" y="100" font-size="11" fill="#eeeef5" font-family="sans-serif" font-weight="700">Inbox</text>
<rect x="138" y="92" width="16" height="12" rx="6" fill="#6366f1"/>
<text x="146" y="101" font-size="8" fill="white" font-family="sans-serif" text-anchor="middle" font-weight="700">3</text>
<rect x="117" y="106" width="196" height="44" fill="#0d0d24" clip-path="url(#screen-area)"/>
<rect x="117" y="106" width="3" height="44" fill="url(#acc)"/>
<circle cx="134" cy="128" r="10" fill="#6366f1" opacity="0.9"/>
<text x="134" y="131" font-size="9" fill="white" font-family="sans-serif" font-weight="700" text-anchor="middle">A</text>
<text x="150" y="120" font-size="9" fill="#eeeef5" font-family="sans-serif" font-weight="700">alice@globalship.eu</text>
<text x="150" y="130" font-size="8" fill="#7878a0" font-family="sans-serif">Parcel TP8821 on its way!</text>
<text x="150" y="141" font-size="7.5" fill="#4a4a6a" font-family="sans-serif">We're happy to confirm…</text>
<text x="303" y="117" font-size="8" fill="#6366f1" font-family="sans-serif" text-anchor="end" font-weight="600">Now</text>
<circle cx="303" cy="128" r="3.5" fill="#6366f1"/>
<rect x="117" y="149" width="196" height="0.5" fill="#1a1a32"/>
<rect x="117" y="150" width="196" height="44" fill="#05050e" clip-path="url(#screen-area)"/>
<circle cx="134" cy="172" r="10" fill="#06b6d4" opacity="0.8"/>
<text x="134" y="175" font-size="9" fill="white" font-family="sans-serif" font-weight="700" text-anchor="middle">M</text>
<text x="150" y="164" font-size="9" fill="#eeeef5" font-family="sans-serif" font-weight="500">Martin Kühn</text>
<text x="150" y="174" font-size="8" fill="#7878a0" font-family="sans-serif">Invoice #2048 — Q2</text>
<text x="150" y="185" font-size="7.5" fill="#4a4a6a" font-family="sans-serif">Please find attached…</text>
<text x="303" y="164" font-size="7.5" fill="#4a4a6a" font-family="sans-serif" text-anchor="end">11 May</text>
<rect x="117" y="193" width="196" height="0.5" fill="#1a1a32"/>
<rect x="117" y="194" width="196" height="44" fill="#0d0d22" clip-path="url(#screen-area)"/>
<rect x="117" y="194" width="3" height="44" fill="url(#acc)"/>
<rect x="124" y="203" width="20" height="20" rx="5" fill="#10b981" opacity="0.2"/>
<text x="134" y="217" font-size="8" fill="#10b981" font-family="sans-serif" font-weight="700" text-anchor="middle">TP</text>
<text x="150" y="208" font-size="9" fill="#eeeef5" font-family="sans-serif" font-weight="700">ThePost.Space</text>
<text x="150" y="218" font-size="8" fill="#7878a0" font-family="sans-serif">Delivery confirmed ✓</text>
<text x="150" y="229" font-size="7.5" fill="#4a4a6a" font-family="sans-serif">Berlin → Tokyo arrived…</text>
<text x="303" y="208" font-size="7.5" fill="#6366f1" font-family="sans-serif" text-anchor="end" font-weight="600">10 May</text>
<circle cx="303" cy="219" r="3.5" fill="#10b981"/>
<rect x="117" y="237" width="196" height="0.5" fill="#1a1a32"/>
<rect x="117" y="238" width="196" height="44" fill="#05050e" clip-path="url(#screen-area)"/>
<circle cx="134" cy="260" r="10" fill="#ec4899" opacity="0.75"/>
<text x="134" y="263" font-size="8" fill="white" font-family="sans-serif" font-weight="700" text-anchor="middle">PK</text>
<text x="150" y="252" font-size="9" fill="#eeeef5" font-family="sans-serif" font-weight="500">Petra Kovaleva</text>
<text x="150" y="262" font-size="8" fill="#7878a0" font-family="sans-serif">Re: Custom clearance docs</text>
<text x="150" y="273" font-size="7.5" fill="#4a4a6a" font-family="sans-serif">Hi, I've attached the req…</text>
<text x="303" y="252" font-size="7.5" fill="#4a4a6a" font-family="sans-serif" text-anchor="end">10 May</text>
<rect x="117" y="281" width="196" height="0.5" fill="#1a1a32"/>
<rect x="117" y="282" width="196" height="44" fill="#05050e" clip-path="url(#screen-area)"/>
<circle cx="134" cy="304" r="10" fill="#f59e0b" opacity="0.8"/>
<text x="134" y="307" font-size="9" fill="white" font-family="sans-serif" font-weight="700" text-anchor="middle">S</text>
<text x="150" y="296" font-size="9" fill="#7878a0" font-family="sans-serif" font-weight="500">Support Team</text>
<text x="150" y="306" font-size="8" fill="#4a4a6a" font-family="sans-serif">Claim #CL-3301 resolved</text>
<text x="303" y="296" font-size="7.5" fill="#4a4a6a" font-family="sans-serif" text-anchor="end">9 May</text>
<rect x="117" y="325" width="196" height="0.5" fill="#1a1a32"/>
<rect x="117" y="326" width="196" height="44" fill="#05050e" clip-path="url(#screen-area)"/>
<circle cx="134" cy="348" r="10" fill="#374151"/>
<text x="134" y="351" font-size="8" fill="#9ca3af" font-family="sans-serif" font-weight="700" text-anchor="middle">KL</text>
<text x="150" y="340" font-size="9" fill="#7878a0" font-family="sans-serif">Klaus Brandt</text>
<text x="150" y="350" font-size="8" fill="#4a4a6a" font-family="sans-serif">Tracking update: In transit</text>
<text x="303" y="340" font-size="7.5" fill="#4a4a6a" font-family="sans-serif" text-anchor="end">7 May</text>
<rect x="314" y="56" width="318" height="330" fill="#05050e" clip-path="url(#screen-area)"/>
<rect x="314" y="56" width="318" height="36" fill="#0d0d20" clip-path="url(#screen-area)"/>
<rect x="314" y="92" width="318" height="0.5" fill="#1a1a32"/>
<line x1="326" y1="74" x2="320" y2="74" stroke="#7878a0" stroke-width="1.2" stroke-linecap="round"/>
<path d="M323 71l-3 3 3 3" stroke="#7878a0" stroke-width="1.2" stroke-linecap="round" stroke-linejoin="round" fill="none"/>
<path d="M568 74l-6 0" stroke="#7878a0" stroke-width="1.2" stroke-linecap="round"/>
<path d="M565 71l-3 3 3 3" stroke="#7878a0" stroke-width="1.2" stroke-linecap="round" stroke-linejoin="round" fill="none"/>
<path d="M580 74l6 0" stroke="#7878a0" stroke-width="1.2" stroke-linecap="round"/>
<path d="M583 71l3 3-3 3" stroke="#7878a0" stroke-width="1.2" stroke-linecap="round" stroke-linejoin="round" fill="none"/>
<rect x="594" y="70" width="10" height="9" rx="1" stroke="#7878a0" stroke-width="1.1" fill="none"/>
<line x1="592" y1="70" x2="606" y2="70" stroke="#7878a0" stroke-width="1.1" stroke-linecap="round"/>
<line x1="597" y1="68" x2="601" y2="68" stroke="#7878a0" stroke-width="1" stroke-linecap="round"/>
<circle cx="618" cy="71" r="1.2" fill="#7878a0"/>
<circle cx="618" cy="75" r="1.2" fill="#7878a0"/>
<circle cx="618" cy="79" r="1.2" fill="#7878a0"/>
<rect x="322" y="100" width="24" height="24" rx="7" fill="#6366f1" opacity="0.85"/>
<text x="334" y="115" font-size="10" fill="white" font-family="sans-serif" font-weight="700" text-anchor="middle">A</text>
<text x="354" y="110" font-size="11" fill="#eeeef5" font-family="sans-serif" font-weight="700">alice@globalship.eu</text>
<text x="354" y="122" font-size="9" fill="#4a4a6a" font-family="sans-serif">to me · Today 09:41</text>
<text x="322" y="148" font-size="14" fill="#eeeef5" font-family="'Syne', sans-serif" font-weight="700">Your parcel TP8821 is on its way!</text>
<rect x="322" y="158" width="120" height="20" rx="10" fill="#10b981" fill-opacity="0.15" stroke="#10b981" stroke-width="0.5" stroke-opacity="0.5"/>
<circle cx="334" cy="168" r="4" fill="#10b981" opacity="0.9"/>
<text x="348" y="171" font-size="9" fill="#10b981" font-family="sans-serif" font-weight="600">In Transit — TP8821</text>
<text x="322" y="196" font-size="10" fill="#7878a0" font-family="sans-serif">Dear Customer,</text>
<text x="322" y="211" font-size="10" fill="#7878a0" font-family="sans-serif">We are delighted to confirm that your parcel TP8821 has been dispatched</text>
<text x="322" y="224" font-size="10" fill="#7878a0" font-family="sans-serif">from our Berlin sorting centre and is now in transit to Tokyo, Japan.</text>
<rect x="322" y="235" width="295" height="80" rx="8" fill="#0d0d20" stroke="#1a1a32" stroke-width="0.5"/>
<text x="334" y="250" font-size="9" fill="#eeeef5" font-family="sans-serif" font-weight="600">Shipment progress</text>
<circle cx="340" cy="266" r="5" fill="#6366f1"/>
<text x="340" y="284" font-size="8" fill="#6366f1" font-family="sans-serif" text-anchor="middle" font-weight="600">Collected</text>
<line x1="346" y1="266" x2="384" y2="266" stroke="url(#acc)" stroke-width="1.5"/>
<circle cx="390" cy="266" r="5" fill="#6366f1"/>
<text x="390" y="284" font-size="8" fill="#6366f1" font-family="sans-serif" text-anchor="middle" font-weight="600">Sorted</text>
<line x1="396" y1="266" x2="434" y2="266" stroke="url(#acc)" stroke-width="1.5"/>
<circle cx="440" cy="266" r="5" fill="#06b6d4"/>
<text x="440" y="284" font-size="8" fill="#06b6d4" font-family="sans-serif" text-anchor="middle" font-weight="600">In transit</text>
<line x1="446" y1="266" x2="484" y2="266" stroke="#252540" stroke-width="1.5" stroke-dasharray="3,2"/>
<circle cx="490" cy="266" r="5" fill="#1a1a32" stroke="#252540" stroke-width="1"/>
<text x="490" y="284" font-size="8" fill="#4a4a6a" font-family="sans-serif" text-anchor="middle">Customs</text>
<line x1="496" y1="266" x2="534" y2="266" stroke="#252540" stroke-width="1.5" stroke-dasharray="3,2"/>
<circle cx="540" cy="266" r="5" fill="#1a1a32" stroke="#252540" stroke-width="1"/>
<text x="540" y="284" font-size="8" fill="#4a4a6a" font-family="sans-serif" text-anchor="middle">Delivered</text>
<text x="334" y="303" font-size="8" fill="#4a4a6a" font-family="sans-serif">Est. delivery: <tspan fill="#eeeef5" font-weight="600">Mon 16 May · Tokyo, JP</tspan></text>
<text x="322" y="328" font-size="10" fill="#7878a0" font-family="sans-serif">Please do not hesitate to contact us if you have any questions regarding</text>
<text x="322" y="341" font-size="10" fill="#7878a0" font-family="sans-serif">your delivery. Our team is available Mon–Fri, 9:00–20:00 CET.</text>
<rect x="314" y="356" width="318" height="30" fill="#0d0d20" clip-path="url(#screen-area)"/>
<rect x="314" y="356" width="318" height="0.5" fill="#1a1a32"/>
<rect x="322" y="361" width="240" height="20" rx="5" fill="#131328" stroke="#1a1a32" stroke-width="0.5"/>
<text x="334" y="374" font-size="9" fill="#4a4a6a" font-family="sans-serif">Reply to alice@globalship.eu…</text>
<rect x="568" y="360" width="52" height="22" rx="6" fill="url(#acc)"/>
<text x="594" y="374" font-size="9" fill="white" font-family="sans-serif" text-anchor="middle" font-weight="600">Send</text>
<rect x="30" y="398" width="620" height="18" fill="url(#mac-body)"/>
<rect x="30" y="398" width="620" height="2" fill="#c0c0cc"/>
<rect x="30" y="406" width="620" height="10" fill="#b0b0be"/>
<rect x="30" y="415" width="620" height="2" fill="#a0a0ae"/>
<rect x="10" y="415" width="660" height="24" rx="8" fill="#c8c8d4" stroke="#aaa" stroke-width="0.5"/>
<rect x="280" y="420" width="120" height="14" rx="4" fill="#bbbbc8" stroke="#a0a0ae" stroke-width="0.5"/>
<rect x="20" y="433" width="60" height="5" rx="2.5" fill="#a0a0ae"/>
<rect x="600" y="433" width="60" height="5" rx="2.5" fill="#a0a0ae"/>
</svg>
