<svg width="320" height="620" viewBox="0 0 320 620" role="img" xmlns="http://www.w3.org/2000/svg">
<title>ThePost.Space — mobile app</title>
<defs>
  <linearGradient id="phone-body" x1="0" y1="0" x2="0" y2="1">
    <stop offset="0%" stop-color="#1c1c2e"/>
    <stop offset="100%" stop-color="#0e0e1a"/>
  </linearGradient>
  <linearGradient id="acc-m" x1="0" y1="0" x2="1" y2="0">
    <stop offset="0%" stop-color="#6366f1"/>
    <stop offset="100%" stop-color="#06b6d4"/>
  </linearGradient>
  <linearGradient id="screen-bg-m" x1="0" y1="0" x2="0" y2="1">
    <stop offset="0%" stop-color="#05050e"/>
    <stop offset="100%" stop-color="#08081a"/>
  </linearGradient>
  <clipPath id="screen-clip">
    <rect x="16" y="56" width="288" height="508" rx="8"/>
  </clipPath>
  <filter id="glow-m">
    <feGaussianBlur stdDeviation="6" result="blur"/>
    <feComposite in="SourceGraphic" in2="blur" operator="over"/>
  </filter>
</defs>

<!-- Phone body -->
<rect x="2" y="2" width="316" height="616" rx="44" fill="url(#phone-body)" stroke="#2a2a3e" stroke-width="1.5"/>
<!-- Side shine -->
<rect x="2" y="2" width="316" height="616" rx="44" fill="none" stroke="url(#acc-m)" stroke-width="0.5" opacity="0.3"/>

<!-- Side buttons -->
<rect x="-1" y="130" width="4" height="36" rx="2" fill="#252538"/>
<rect x="-1" y="178" width="4" height="56" rx="2" fill="#252538"/>
<rect x="317" y="148" width="4" height="66" rx="2" fill="#252538"/>

<!-- Screen area -->
<rect x="16" y="56" width="288" height="508" rx="8" fill="url(#screen-bg-m)"/>

<!-- Dynamic island -->
<rect x="116" y="18" width="88" height="26" rx="13" fill="#000"/>
<circle cx="185" cy="31" r="4" fill="#111"/>
<circle cx="185" cy="31" r="1.5" fill="#1a1a2a"/>

<!-- Status bar -->
<text x="30" y="45" font-size="12" fill="#eeeef5" font-family="'SF Pro Display', -apple-system, sans-serif" font-weight="600">9:41</text>
<!-- Battery -->
<rect x="264" y="37" width="22" height="11" rx="2.5" stroke="#eeeef5" stroke-width="1.2" fill="none"/>
<rect x="286" y="40" width="2.5" height="5" rx="1" fill="#eeeef5"/>
<rect x="265.5" y="38.5" width="16" height="8" rx="1.5" fill="#eeeef5"/>
<!-- Signal bars -->
<rect x="240" y="42" width="3" height="6" rx="1" fill="#eeeef5"/>
<rect x="245" y="40" width="3" height="8" rx="1" fill="#eeeef5"/>
<rect x="250" y="38" width="3" height="10" rx="1" fill="#eeeef5"/>
<rect x="255" y="36" width="3" height="12" rx="1" fill="#eeeef5"/>
<!-- Wifi -->
<path d="M226 42 Q229 38 232 42" stroke="#eeeef5" stroke-width="1.2" fill="none" stroke-linecap="round"/>
<path d="M223 39 Q229 33 235 39" stroke="#eeeef5" stroke-width="1.2" fill="none" stroke-linecap="round"/>
<circle cx="229" cy="44" r="1.5" fill="#eeeef5"/>

<!-- ── App content (clipped to screen) ── -->
<g clip-path="url(#screen-clip)">

  <!-- Top nav bar -->
  <rect x="16" y="56" width="288" height="44" fill="#0d0d20"/>
  <!-- Logo -->
  <rect x="28" y="68" width="20" height="20" rx="6" fill="url(#acc-m)"/>
  <path d="M31 74l7 4.5 7-4.5" stroke="white" stroke-width="1.3" stroke-linecap="round" fill="none"/>
  <rect x="31" y="72" width="14" height="10" rx="1.5" stroke="white" stroke-width="1.3" fill="none"/>
  <text x="54" y="82" font-size="13" fill="#eeeef5" font-family="'SF Pro Display', -apple-system, sans-serif" font-weight="700">thepost.space</text>
  <!-- Search icon -->
  <circle cx="278" cy="78" r="6" stroke="#7878a0" stroke-width="1.4" fill="none"/>
  <line x1="282.5" y1="82.5" x2="285" y2="85" stroke="#7878a0" stroke-width="1.4" stroke-linecap="round"/>
  <!-- Compose icon -->
  <rect x="294" y="68" width="20" height="20" rx="5" fill="none" stroke="#6366f1" stroke-width="1.3"/>
  <path d="M299 78h10M304 73v10" stroke="#6366f1" stroke-width="1.3" stroke-linecap="round"/>

  <!-- Folder tabs -->
  <rect x="16" y="100" width="288" height="34" fill="#08081a"/>
  <rect x="24" y="106" width="52" height="22" rx="11" fill="url(#acc-m)"/>
  <text x="50" y="121" font-size="10" fill="#fff" font-family="-apple-system, sans-serif" font-weight="600" text-anchor="middle">Inbox</text>
  <text x="102" y="121" font-size="10" fill="#4a4a6a" font-family="-apple-system, sans-serif" text-anchor="middle">Sent</text>
  <text x="144" y="121" font-size="10" fill="#4a4a6a" font-family="-apple-system, sans-serif" text-anchor="middle">Drafts</text>
  <text x="192" y="121" font-size="10" fill="#4a4a6a" font-family="-apple-system, sans-serif" text-anchor="middle">Archive</text>
  <text x="243" y="121" font-size="10" fill="#4a4a6a" font-family="-apple-system, sans-serif" text-anchor="middle">Spam</text>
  <rect x="16" y="134" width="288" height="1" fill="#1a1a32"/>

  <!-- Email row 1 — active/unread -->
  <rect x="16" y="135" width="288" height="58" fill="#0d0d22"/>
  <rect x="16" y="135" width="3" height="58" fill="url(#acc-m)"/>
  <circle cx="44" cy="164" r="16" fill="#6366f1" opacity="0.9"/>
  <text x="44" y="169" font-size="12" fill="#fff" font-family="-apple-system, sans-serif" font-weight="700" text-anchor="middle">A</text>
  <text x="68" y="153" font-size="11" fill="#eeeef5" font-family="-apple-system, sans-serif" font-weight="700">alice@globalship.eu</text>
  <text x="68" y="166" font-size="10" fill="#7878a0" font-family="-apple-system, sans-serif">Parcel TP8821 is on its way!</text>
  <text x="68" y="179" font-size="9" fill="#4a4a6a" font-family="-apple-system, sans-serif">We're happy to confirm your sh…</text>
  <text x="297" y="153" font-size="9" fill="#6366f1" font-family="-apple-system, sans-serif" text-anchor="end" font-weight="600">Now</text>
  <circle cx="295" cy="166" r="4" fill="#6366f1"/>
  <rect x="16" y="193" width="288" height="1" fill="#1a1a32"/>

  <!-- Email row 2 -->
  <rect x="16" y="194" width="288" height="58" fill="#05050e"/>
  <circle cx="44" cy="223" r="16" fill="#06b6d4" opacity="0.85"/>
  <text x="44" y="228" font-size="12" fill="#fff" font-family="-apple-system, sans-serif" font-weight="700" text-anchor="middle">M</text>
  <text x="68" y="212" font-size="11" fill="#eeeef5" font-family="-apple-system, sans-serif" font-weight="600">Martin Kühn</text>
  <text x="68" y="225" font-size="10" fill="#7878a0" font-family="-apple-system, sans-serif">Invoice #2048 — Q2 shipment</text>
  <text x="68" y="238" font-size="9" fill="#4a4a6a" font-family="-apple-system, sans-serif">Please find attached the invoi…</text>
  <text x="297" y="212" font-size="9" fill="#4a4a6a" font-family="-apple-system, sans-serif" text-anchor="end">11 May</text>
  <rect x="16" y="252" width="288" height="1" fill="#1a1a32"/>

  <!-- Email row 3 — unread with green badge -->
  <rect x="16" y="253" width="288" height="58" fill="#0d0d22"/>
  <rect x="16" y="253" width="3" height="58" fill="#10b981"/>
  <rect x="28" y="261" width="32" height="32" rx="9" fill="#10b981" opacity="0.18"/>
  <text x="44" y="281" font-size="10" fill="#10b981" font-family="-apple-system, sans-serif" font-weight="700" text-anchor="middle">TP</text>
  <text x="68" y="270" font-size="11" fill="#eeeef5" font-family="-apple-system, sans-serif" font-weight="700">ThePost.Space</text>
  <text x="68" y="283" font-size="10" fill="#7878a0" font-family="-apple-system, sans-serif">Delivery confirmed — Berlin→Tokyo</text>
  <text x="68" y="296" font-size="9" fill="#4a4a6a" font-family="-apple-system, sans-serif">Your parcel arrived at 14:32…</text>
  <text x="297" y="270" font-size="9" fill="#10b981" font-family="-apple-system, sans-serif" text-anchor="end" font-weight="600">10 May</text>
  <circle cx="295" cy="283" r="4" fill="#10b981"/>
  <rect x="16" y="311" width="288" height="1" fill="#1a1a32"/>

  <!-- Email row 4 -->
  <rect x="16" y="312" width="288" height="58" fill="#05050e"/>
  <circle cx="44" cy="341" r="16" fill="#ec4899" opacity="0.8"/>
  <text x="44" y="346" font-size="10" fill="#fff" font-family="-apple-system, sans-serif" font-weight="700" text-anchor="middle">PK</text>
  <text x="68" y="330" font-size="11" fill="#eeeef5" font-family="-apple-system, sans-serif" font-weight="600">Petra Kovaleva</text>
  <text x="68" y="343" font-size="10" fill="#7878a0" font-family="-apple-system, sans-serif">Re: Custom clearance documents</text>
  <text x="68" y="356" font-size="9" fill="#4a4a6a" font-family="-apple-system, sans-serif">Hi, I have attached the req…</text>
  <text x="297" y="330" font-size="9" fill="#4a4a6a" font-family="-apple-system, sans-serif" text-anchor="end">10 May</text>
  <rect x="16" y="370" width="288" height="1" fill="#1a1a32"/>

  <!-- Email row 5 -->
  <rect x="16" y="371" width="288" height="58" fill="#05050e"/>
  <circle cx="44" cy="400" r="16" fill="#f59e0b" opacity="0.85"/>
  <text x="44" y="405" font-size="12" fill="#fff" font-family="-apple-system, sans-serif" font-weight="700" text-anchor="middle">S</text>
  <text x="68" y="389" font-size="11" fill="#eeeef5" font-family="-apple-system, sans-serif" font-weight="600">Support Team</text>
  <text x="68" y="402" font-size="10" fill="#7878a0" font-family="-apple-system, sans-serif">Claim #CL-3301 is resolved</text>
  <text x="68" y="415" font-size="9" fill="#4a4a6a" font-family="-apple-system, sans-serif">We are pleased to let you know…</text>
  <text x="297" y="389" font-size="9" fill="#4a4a6a" font-family="-apple-system, sans-serif" text-anchor="end">9 May</text>
  <rect x="16" y="429" width="288" height="1" fill="#1a1a32"/>

  <!-- Email row 6 -->
  <rect x="16" y="430" width="288" height="58" fill="#05050e"/>
  <circle cx="44" cy="459" r="16" fill="#374151"/>
  <text x="44" y="464" font-size="10" fill="#9ca3af" font-family="-apple-system, sans-serif" font-weight="700" text-anchor="middle">KL</text>
  <text x="68" y="448" font-size="11" fill="#7878a0" font-family="-apple-system, sans-serif">Klaus Brandt</text>
  <text x="68" y="461" font-size="10" fill="#4a4a6a" font-family="-apple-system, sans-serif">Tracking update: In transit</text>
  <text x="297" y="448" font-size="9" fill="#4a4a6a" font-family="-apple-system, sans-serif" text-anchor="end">7 May</text>
  <rect x="16" y="488" width="288" height="1" fill="#1a1a32"/>

  <!-- Bottom tab bar -->
  <rect x="16" y="489" width="288" height="75" fill="#08081a"/>
  <rect x="16" y="489" width="288" height="1" fill="#1a1a32"/>
  <!-- Tab icons -->
  <!-- Mail tab (active) -->
  <rect x="34" y="500" width="28" height="22" rx="6" fill="#6366f1" opacity="0.2"/>
  <path d="M37 508h22M37 508v9a2 2 0 002 2h18a2 2 0 002-2v-9" stroke="#6366f1" stroke-width="1.3" stroke-linecap="round" fill="none"/>
  <path d="M37 508l11 7 11-7" stroke="#6366f1" stroke-width="1.3" stroke-linecap="round" stroke-linejoin="round" fill="none"/>
  <circle cx="52" cy="499" r="5" fill="#6366f1"/>
  <text x="52" y="503" font-size="7" fill="#fff" font-family="-apple-system, sans-serif" font-weight="700" text-anchor="middle">3</text>
  <text x="52" y="530" font-size="9" fill="#6366f1" font-family="-apple-system, sans-serif" text-anchor="middle" font-weight="600">Mail</text>
  <!-- Track tab -->
  <circle cx="120" cy="511" r="7" stroke="#4a4a6a" stroke-width="1.3" fill="none"/>
  <circle cx="120" cy="511" r="2.5" fill="#4a4a6a"/>
  <line x1="120" y1="518" x2="120" y2="523" stroke="#4a4a6a" stroke-width="1.3" stroke-linecap="round"/>
  <text x="120" y="530" font-size="9" fill="#4a4a6a" font-family="-apple-system, sans-serif" text-anchor="middle">Track</text>
  <!-- Send tab -->
  <path d="M182 522l-13-8 20-6z" stroke="#4a4a6a" stroke-width="1.2" stroke-linecap="round" stroke-linejoin="round" fill="none"/>
  <path d="M169 514l4 8 4-6 10-5" stroke="#4a4a6a" stroke-width="1.2" stroke-linecap="round" stroke-linejoin="round" fill="none"/>
  <text x="176" y="530" font-size="9" fill="#4a4a6a" font-family="-apple-system, sans-serif" text-anchor="middle">Send</text>
  <!-- Profile tab -->
  <circle cx="244" cy="509" r="7" fill="#374151"/>
  <text x="244" y="513" font-size="8" fill="#9ca3af" font-family="-apple-system, sans-serif" font-weight="700" text-anchor="middle">Me</text>
  <text x="244" y="530" font-size="9" fill="#4a4a6a" font-family="-apple-system, sans-serif" text-anchor="middle">Profile</text>

  <!-- Home indicator -->
  <rect x="120" y="548" width="80" height="4" rx="2" fill="#252540"/>

</g>

<!-- Bottom chin -->
<rect x="2" y="565" width="316" height="53" rx="44" fill="url(#phone-body)"/>
</svg>
